<svg xmlns="http://www.w3.org/2000/svg" viewBox="0 0 135.59 77"><defs><style>.cls-1,.cls-2{fill:#2f3030;}.cls-2{font-size:19.54px;font-family:Raleway-Medium, Raleway;letter-spacing:0.16em;}.cls-3{letter-spacing:0.18em;}</style></defs><title>logo-whiteArtboard 2</title><g id="Layer_1" data-name="Layer 1"><path class="cls-1" d="M39.08,29.16A1.44,1.44,0,0,1,39.44,28a1.17,1.17,0,0,1,1.38-.48l.07-.13.82-.54C52.62,19.74,53,12.06,53,12.06,52.63,10.31,49.63,8.78,41.5,22c-1.59,2.58-2.92,4.92-4,7A67.51,67.51,0,0,1,30,33.06a.26.26,0,0,0-.15.29l0,.17a.26.26,0,0,0,.34.2c.56-.19,2.17-1,6.78-3.87-.35.68-.67,1.34-1,2l.2-.16c.18-.15.75-.88.31-.26a3.44,3.44,0,0,1,1.66-1.27A1.31,1.31,0,0,1,39.08,29.16ZM51.45,12.74a.26.26,0,0,1,.42.27c-1.26,5.19-5.75,9.74-10.36,13.2C46.34,17.22,50.08,13.79,51.45,12.74Z"/><path class="cls-1" d="M79,40.67c-.79-4,12.76-25.76,12.76-25.76l-.54-.28a.75.75,0,0,0-.93.2c-2.19,2.79-13.42,19-13.14,25.7a.94.94,0,0,0,0,.21c.17.62,1.16,3.38,4.89.72,4.17-3,15.05-14.91,16-16.07l.69-.88C94.63,29.19,79.89,45.11,79,40.67Z"/><path class="cls-1" d="M97.31,25.31c.66-.71,1.06-1.16,1.09-1.22C98.56,23.76,98,24.47,97.31,25.31Z"/><path class="cls-1" d="M91.35,46.38c-6.44-1.7,12.45-29.15,13.75-29.94,1.1-.67,0,5-.34,6.66a.36.36,0,1,0,.71.14c.34-1.73,2-11.2-3-5.77-5.55,6-20.46,27.46-14.18,30.1,4.29,1.8,10.83-4.43,16.27-11.72C99.47,41.65,93.8,47,91.35,46.38Z"/><path class="cls-1" d="M54.12,36.95c-.77.65-1.53,1.29-2.25,1.92L54.11,37Z"/><path class="cls-1" d="M73.44,22.22C68.93,25,62.43,30.08,57,34.52c.77-4.71,1.37-9.19,1.51-10,0,0,.12-.49.12-.49A11.41,11.41,0,0,1,59.34,23c6.27-8.3,9.72-17.34,9.55-20.28-.05-.9-1-3.32-4.06.81-3.76,5.16-7.37,15.65-8.13,20.2v0L54.12,36.95l1.38-1.14L54.11,37l-.58,2.95C53.4,40.43,50.94,53,45.85,52c-4.34-.88-.32-6.68,0-7.09L47,43.54a56.11,56.11,0,0,1,4.85-4.67c-2.57,2.19-4.29,3.71-4.44,3.85l-.85.9c-.3.31-6.78,6.87-1,9S53.76,48.1,54.53,46A79.74,79.74,0,0,0,57,34.56c6.38-5.11,13.11-9.91,14.08-10.6ZM68,1.41C70,1.47,67,8.83,67,8.83c-1.11,3.53-8.44,14.28-8.44,14.28S64,1.3,68,1.41Z"/><path class="cls-1" d="M70.07,33.73c-.64.53-1.25,1.06-1.85,1.58l1.84-1.56Z"/><path class="cls-1" d="M85.93,21.65A136.29,136.29,0,0,0,72.48,31.74c.63-3.87,1.13-7.55,1.24-8.21l.09-.61.56-.66C79.5,15.43,82.34,8,82.2,5.6c0-.74-.58-2.51-3.33.66-3.46,4-6.67,16.59-6.67,16.59L70.07,33.73l1.13-.93-1.13.95-.47,2.42c-.11.43-2.13,10.77-6.31,9.92-3.56-.72-.26-5.48,0-5.82l1-1.12a46.05,46.05,0,0,1,4-3.83c-2.11,1.8-3.52,3-3.65,3.16l-.7.74c-.25.25-5.57,5.64-.79,7.35s6-2.68,7.32-5.36c.63-1.29,1.41-5.45,2.06-9.43,5.23-4.19,10.76-8.13,11.56-8.7ZM81.44,4.57c1.65,0-.76,6.09-.76,6.09-.91,2.9-6.84,11.28-6.84,11.28S78.21,4.48,81.44,4.57Z"/><path class="cls-1" d="M35.05,18.69v0c-.32.79-15.81,45.6-23.17,52.45-6.19,5.76-10.33,2.09-10.6.92a.12.12,0,0,0,0-.08l-.29-.2a.1.1,0,0,0-.15.11c.27,1,1.6,4.07,4.67,4.67,1.68.33,8.94,2.65,20.1-27.37s11.14-28.66,11-29.41S36.14,17.17,35.05,18.69Z"/><path class="cls-1" d="M1.74,73S-6.89,61.84,30,34l0-.92S4.8,49,1.07,64.55C1.07,64.55-.68,72,1.74,73Z"/><path class="cls-1" d="M117.32,24.16S106.77,44.63,113,45.88s10.74-10.14,10.74-10.14-5.24,10.94-10.08,9.56S120,22.55,120,22.55s.1-1.93-1.34-1Z"/><path class="cls-1" d="M114.24,33.44c-3,3.22-6,5.8-7.46,5.42-4.48-1.18,8.65-20.27,9.56-20.82s0,3.44-.24,4.63a.25.25,0,1,0,.5.1c.24-1.21,1.42-7.79-2.09-4-3.86,4.15-14.22,19.09-9.86,20.93,2.57,1.08,6.3-2,9.7-6.1Z"/><path class="cls-1" d="M44.8,38.88c-3.43,3.68-6.63,6.32-8.37,5.94C32.5,44,37.67,33.26,42.35,24.68a3,3,0,0,1-.29-.78c-.09-.45-.19-.9-.32-1.34,0-.18-.11-.35-.16-.53-6,8.94-13,22.28-8.17,24.1,3.24,1.21,7.65-2.23,11.76-7.07C45.06,39,44.86,39,44.8,38.88Z"/><path class="cls-1" d="M57.47,25.3S42,43.43,39.19,44.65c0,0,18.39-19.25,18.53-20.33S57.47,25.3,57.47,25.3Z"/><text class="cls-2" transform="translate(60.18 66.08)">T<tspan class="cls-3" x="15.16" y="0">ORO</tspan></text><circle class="cls-1" cx="38.36" cy="11.92" r="1.19"/><circle class="cls-1" cx="94.02" cy="9.83" r="1.19"/></g></svg>