<svg id="Layer_1" data-name="Layer 1" xmlns="http://www.w3.org/2000/svg" viewBox="0 0 120.38 73.52"><defs><style>.cls-1{fill:#fff;}</style></defs><path class="cls-1" d="M39.19,27.89a1.27,1.27,0,0,1,.32-1,1.05,1.05,0,0,1,1.25-.43l.06-.12.74-.48c9.79-6.39,10.1-13.28,10.1-13.28-.31-1.56-3-2.94-10.29,8.88-1.43,2.32-2.62,4.42-3.61,6.31a62.58,62.58,0,0,1-6.7,3.67.24.24,0,0,0-.14.26l0,.15a.24.24,0,0,0,.31.18,41.48,41.48,0,0,0,6.09-3.47c-.32.61-.6,1.2-.88,1.77l.19-.15c.16-.13.67-.79.27-.23a3.15,3.15,0,0,1,1.49-1.14A1.2,1.2,0,0,1,39.19,27.89ZM50.3,13.16a.23.23,0,0,1,.37.24c-1.13,4.65-5.16,8.74-9.3,11.85C45.7,17.18,49.07,14.1,50.3,13.16Z"/><path class="cls-1" d="M75,38.23C74.32,34.66,86.49,15.1,86.49,15.1L86,14.85a.67.67,0,0,0-.83.18c-2,2.5-12,17-11.8,23.07a1.25,1.25,0,0,0,0,.19c.15.55,1,3,4.38.65,3.75-2.67,13.52-13.39,14.34-14.42l.61-.79C89.05,27.92,75.82,42.21,75,38.23Z"/><path class="cls-1" d="M91.46,24.44c.59-.64,1-1,1-1.09C92.58,23.05,92.08,23.68,91.46,24.44Z"/><path class="cls-1" d="M86.11,43.35c-5.78-1.53,11.17-26.16,12.34-26.87,1-.61,0,4.44-.31,6a.32.32,0,0,0,.35.39.32.32,0,0,0,.29-.26c.31-1.55,1.84-10-2.7-5.18-5,5.36-18.36,24.66-12.73,27C87.2,46,93.07,40.45,98,33.9,93.4,39.11,88.31,43.94,86.11,43.35Z"/><path class="cls-1" d="M52.69,34.88c-.7.58-1.37,1.16-2,1.73l2-1.71Z"/><path class="cls-1" d="M70,21.67a148.57,148.57,0,0,0-14.71,11c.69-4.22,1.23-8.25,1.35-9,0,0,.1-.44.1-.44.19-.35.59-.92.61-1C63,14.87,66.1,6.76,66,4.12c0-.81-.94-3-3.64.72C58.93,9.48,55.7,18.89,55,23h0c0,.27-1.52,7.77-2.32,11.89l1.23-1-1.24,1-.51,2.64c-.13.47-2.34,11.78-6.9,10.85-3.89-.79-.29-6,0-6.36l1.06-1.23a48.54,48.54,0,0,1,4.35-4.19c-2.31,2-3.86,3.33-4,3.45s-.75.8-.76.8c-.27.28-6.09,6.17-.86,8s7.31-4,8-5.86a71.12,71.12,0,0,0,2.25-10.31C61,28.15,67.08,23.84,68,23.23ZM65.12,3c1.81,0-.83,6.65-.83,6.65-1,3.17-7.58,12.83-7.58,12.83S61.59,2.89,65.12,3Z"/><path class="cls-1" d="M67,32c-.57.47-1.13,1-1.66,1.41L67,32Z"/><path class="cls-1" d="M81.25,21.15a121.84,121.84,0,0,0-12.08,9.06c.56-3.47,1-6.77,1.11-7.37,0,0,.08-.55.08-.55l.5-.6c4.62-6.12,7.16-12.78,7-14.94,0-.67-.53-2.25-3,.59-3.11,3.58-6,14.89-6,14.89S67.68,28.55,67,32l1-.84L67,32c-.26,1.29-.43,2.17-.43,2.17-.1.39-1.91,9.67-5.66,8.91-3.2-.65-.24-4.92,0-5.23l.87-1a41.82,41.82,0,0,1,3.57-3.44c-1.89,1.62-3.16,2.74-3.27,2.84s-.62.65-.63.66c-.22.22-5,5.06-.7,6.6s5.39-2.41,6.56-4.81c.57-1.16,1.27-4.9,1.85-8.46,4.7-3.77,9.67-7.3,10.38-7.81Zm-4-15.33c1.49,0-.68,5.46-.68,5.46-.82,2.6-6.14,10.13-6.14,10.13S74.31,5.74,77.21,5.82Z"/><path class="cls-1" d="M35.58,18.5l0,0c-.28.7-14.19,40.93-20.79,47.07-5.56,5.17-9.28,1.88-9.51.83,0,0,0-.06,0-.07L5,66.17a.08.08,0,0,0-.13.09c.24.88,1.43,3.66,4.18,4.2,1.51.29,8,2.37,18-24.57S37,20.16,37,19.48,36.55,17.13,35.58,18.5Z"/><path class="cls-1" d="M5.67,67.27s-7.74-10,25.36-35l0-.82S8.42,45.72,5.07,59.66C5.07,59.66,3.5,66.31,5.67,67.27Z"/><path class="cls-1" d="M109.42,23.41S100,41.78,105.54,42.9s9.64-9.11,9.64-9.11-4.71,9.82-9.05,8.58S111.84,22,111.84,22s.08-1.74-1.21-.87Z"/><path class="cls-1" d="M106.66,31.73c-2.71,2.89-5.41,5.21-6.7,4.87-4-1.07,7.77-18.19,8.58-18.69s0,3.09-.21,4.16a.23.23,0,0,0,.24.27.22.22,0,0,0,.2-.18c.22-1.09,1.28-7-1.87-3.6-3.47,3.72-12.77,17.14-8.85,18.78,2.3,1,5.65-1.78,8.71-5.48A.64.64,0,0,1,106.66,31.73Z"/><path class="cls-1" d="M44.33,36.62c-3.08,3.31-6,5.68-7.52,5.33-3.53-.78,1.12-10.38,5.31-18.08a2.46,2.46,0,0,1-.26-.7c-.08-.4-.17-.8-.28-1.2l-.15-.48c-5.36,8-11.7,20-7.33,21.64,2.91,1.09,6.87-2,10.56-6.35C44.56,36.69,44.38,36.74,44.33,36.62Z"/><path class="cls-1" d="M55.7,24.43S41.78,40.7,39.29,41.8c0,0,16.51-17.28,16.63-18.25S55.7,24.43,55.7,24.43Z"/><path class="cls-1" d="M29.16,64.05V53.29h4.49a2.9,2.9,0,0,1,1.31.3,3.42,3.42,0,0,1,1,.78,3.92,3.92,0,0,1,.67,1.11,3.43,3.43,0,0,1,.24,1.25A3.8,3.8,0,0,1,36.68,58a3.68,3.68,0,0,1-.65,1.1,3.18,3.18,0,0,1-1,.78,2.9,2.9,0,0,1-1.29.28H30.53v3.87ZM30.53,59h3.13a1.77,1.77,0,0,0,.77-.17,1.81,1.81,0,0,0,.58-.49,2.24,2.24,0,0,0,.38-.72,2.71,2.71,0,0,0,.13-.86,2.54,2.54,0,0,0-.15-.88,2.41,2.41,0,0,0-.43-.71,1.89,1.89,0,0,0-.62-.47,1.79,1.79,0,0,0-.75-.17h-3Z"/><path class="cls-1" d="M43.87,53.29H45l4.39,10.76H48L46.69,60.9H42.17l-1.25,3.15H39.46Zm2.51,6.55-1.93-5-2,5Z"/><path class="cls-1" d="M52.53,58.59a6,6,0,0,1,.34-1.93,5.39,5.39,0,0,1,1-1.72,5,5,0,0,1,1.62-1.24,4.83,4.83,0,0,1,2.16-.47,4.57,4.57,0,0,1,2.47.65,4,4,0,0,1,1.53,1.7l-1.07.7a3.16,3.16,0,0,0-.59-.87,2.83,2.83,0,0,0-.74-.56,3.18,3.18,0,0,0-.83-.3,4,4,0,0,0-.83-.09,3.26,3.26,0,0,0-1.58.37,3.65,3.65,0,0,0-1.16,1,4.13,4.13,0,0,0-.7,1.35,4.9,4.9,0,0,0-.24,1.5,4.6,4.6,0,0,0,.28,1.62A4.5,4.5,0,0,0,55,61.62a3.69,3.69,0,0,0,1.18.94,3.27,3.27,0,0,0,1.49.35,3.84,3.84,0,0,0,.87-.11,3,3,0,0,0,.85-.34,3.29,3.29,0,0,0,.77-.59,2.84,2.84,0,0,0,.58-.85l1.14.62a3.36,3.36,0,0,1-.72,1.07,5.12,5.12,0,0,1-1.05.78,5.42,5.42,0,0,1-1.23.48,5.23,5.23,0,0,1-1.27.17,4.2,4.2,0,0,1-2-.49A5.32,5.32,0,0,1,54,62.39a5.78,5.78,0,0,1-1.05-1.78A5.87,5.87,0,0,1,52.53,58.59Z"/><path class="cls-1" d="M75,53.29V64.05H73.62v-4.9H67.69v4.9H66.33V53.29h1.36v4.65h5.93V53.29Z"/><path class="cls-1" d="M87.63,62.83v1.22h-7.3V53.29h7.16V54.5h-5.8V58h5v1.13h-5v3.71Z"/><path class="cls-1" d="M91.35,58.59a6,6,0,0,1,.34-1.93,5.39,5.39,0,0,1,1-1.72,5,5,0,0,1,1.62-1.24,4.83,4.83,0,0,1,2.16-.47,4.57,4.57,0,0,1,2.47.65,4,4,0,0,1,1.53,1.7l-1.07.7a3.16,3.16,0,0,0-.59-.87,2.83,2.83,0,0,0-.74-.56,3.18,3.18,0,0,0-.83-.3,4,4,0,0,0-.83-.09,3.26,3.26,0,0,0-1.58.37,3.65,3.65,0,0,0-1.16,1,4.13,4.13,0,0,0-.7,1.35,4.9,4.9,0,0,0-.24,1.5A4.6,4.6,0,0,0,93,60.27a4.5,4.5,0,0,0,.78,1.35,3.69,3.69,0,0,0,1.18.94,3.27,3.27,0,0,0,1.49.35,3.84,3.84,0,0,0,.87-.11,3,3,0,0,0,.85-.34,3.29,3.29,0,0,0,.77-.59,2.84,2.84,0,0,0,.58-.85l1.14.62a3.36,3.36,0,0,1-.72,1.07,5.12,5.12,0,0,1-1,.78,5.42,5.42,0,0,1-1.23.48,5.23,5.23,0,0,1-1.27.17,4.2,4.2,0,0,1-2-.49,5.32,5.32,0,0,1-1.6-1.26,5.78,5.78,0,0,1-1-1.78A5.87,5.87,0,0,1,91.35,58.59Z"/><path class="cls-1" d="M109.39,64.12a4.56,4.56,0,0,1-2.07-.46,5.07,5.07,0,0,1-1.59-1.23,5.39,5.39,0,0,1-1-1.75,5.69,5.69,0,0,1,1.09-5.81,5.06,5.06,0,0,1,1.61-1.21,4.73,4.73,0,0,1,2-.44,4.49,4.49,0,0,1,2.06.47,5.28,5.28,0,0,1,1.59,1.25,5.61,5.61,0,0,1,1,1.75,5.74,5.74,0,0,1,.37,2,5.51,5.51,0,0,1-.39,2.06A5.68,5.68,0,0,1,113,62.48a5,5,0,0,1-1.61,1.19A4.57,4.57,0,0,1,109.39,64.12Zm-3.68-5.45a4.73,4.73,0,0,0,.27,1.58,4.2,4.2,0,0,0,.75,1.36,3.78,3.78,0,0,0,1.16.94,3.33,3.33,0,0,0,1.52.34,3.13,3.13,0,0,0,1.54-.37,3.63,3.63,0,0,0,1.16-1,4.29,4.29,0,0,0,.73-1.35,5.1,5.1,0,0,0,.25-1.53,4.68,4.68,0,0,0-.27-1.58,4.07,4.07,0,0,0-.76-1.35,3.61,3.61,0,0,0-1.16-.93,3.12,3.12,0,0,0-1.49-.35,3.28,3.28,0,0,0-1.55.36,3.7,3.7,0,0,0-1.16,1,4.45,4.45,0,0,0-.73,1.34A4.85,4.85,0,0,0,105.71,58.67Z"/><circle class="cls-1" cx="38.54" cy="12.42" r="1.07"/><circle class="cls-1" cx="88.51" cy="10.54" r="1.07"/></svg>