<svg xmlns="http://www.w3.org/2000/svg" viewBox="0 0 726.52 426"><defs><style>.cls-1,.cls-2{fill:#2f3030;}.cls-2{font-size:103px;font-family:Raleway-Light, Raleway;letter-spacing:0.15em;}.cls-3{letter-spacing:0.18em;}</style></defs><title>signaturesBLACK</title><g id="Layer_1" data-name="Layer 1"><path class="cls-1" d="M212.74,163.57a7.62,7.62,0,0,1,1.92-6.15,6.15,6.15,0,0,1,7.3-2.51l.36-.71,4.34-2.82c57.49-37.51,59.34-78,59.34-78-1.82-9.21-17.6-17.29-60.46,52.14-8.4,13.6-15.38,25.95-21.21,37.07A355.93,355.93,0,0,1,165,184.14a1.38,1.38,0,0,0-.78,1.52l.17.91a1.39,1.39,0,0,0,1.81,1.06c2.95-1,11.42-5.11,35.75-20.39-1.84,3.6-3.54,7.05-5.13,10.38.36-.28.72-.56,1.07-.86.94-.79,4-4.64,1.62-1.35a18.11,18.11,0,0,1,8.76-6.71A6.89,6.89,0,0,1,212.74,163.57ZM278,77a1.39,1.39,0,0,1,2.21,1.42c-6.63,27.35-30.33,51.36-54.61,69.6C251,100.64,270.78,82.53,278,77Z"/><path class="cls-1" d="M423.27,224.25c-4.16-20.94,67.28-135.8,67.28-135.8L487.72,87A3.94,3.94,0,0,0,482.8,88C471.22,102.72,412,188,413.53,223.51a5,5,0,0,0,.14,1.11c.89,3.25,6.13,17.82,25.77,3.81,22-15.68,79.36-78.63,84.19-84.71,1.21-1.52,2.45-3.12,3.61-4.64C505.61,163.74,427.91,247.64,423.27,224.25Z"/><path class="cls-1" d="M519.76,143.29c3.49-3.76,5.58-6.13,5.73-6.44C526.34,135.11,523.4,138.82,519.76,143.29Z"/><path class="cls-1" d="M488.33,254.37c-33.95-9,65.63-153.68,72.47-157.86,5.81-3.55.06,26.11-1.8,35.1a1.92,1.92,0,1,0,3.76.76c1.81-9.14,10.78-59.05-15.84-30.42-29.24,31.44-107.84,144.79-74.77,158.71,22.6,9.51,57.08-23.34,85.77-61.81C531.15,229.42,501.26,257.79,488.33,254.37Z"/><path class="cls-1" d="M292,204.62c-4.08,3.41-8.06,6.8-11.85,10.12,3.65-3.11,7.62-6.48,11.84-10Z"/><path class="cls-1" d="M393.91,127c-23.78,14.43-58.07,41.43-86.42,64.84,4-24.84,7.25-48.47,7.94-52.77,0-.2.61-2.56.61-2.56a60.13,60.13,0,0,1,3.56-5.64c33-43.78,51.24-91.43,50.34-106.93-.27-4.74-5.52-17.53-21.39,4.25-19.83,27.22-38.83,82.52-42.85,106.52l0,.09L292,204.62q3.58-3,7.26-6l-7.28,6.1-3,15.53c-.73,2.75-13.7,69.18-40.5,63.73-22.87-4.65-1.7-35.19-.08-37.38l6.23-7.22c6.39-7.21,15.34-15.69,25.56-24.63-13.55,11.56-22.63,19.57-23.42,20.27l-4.47,4.73c-1.58,1.61-35.76,36.21-5.07,47.24,31.38,11.28,42.92-23.56,47-34.41,3.82-10.19,9.09-35,13.24-60.56,33.63-26.93,69.14-52.25,74.24-55.87C382.11,135.85,393.91,127,393.91,127ZM365.06,17.27c10.63.29-4.89,39.11-4.89,39.11-5.84,18.62-44.52,75.31-44.52,75.31S344.3,16.7,365.06,17.27Z"/><path class="cls-1" d="M376.15,187.67c-3.35,2.8-6.61,5.58-9.73,8.31,3-2.55,6.25-5.32,9.71-8.23Z"/><path class="cls-1" d="M459.77,123.95c-19.51,11.84-47.66,34-70.93,53.22,3.32-20.39,5.95-39.79,6.52-43.31,0-.17.48-3.23.48-3.23s2.83-3.36,2.94-3.5c27.12-35.93,42.06-75,41.32-87.77-.22-3.89-3.06-13.22-17.55,3.49-18.22,21-35.18,87.46-35.18,87.46l-11.21,57.36q2.94-2.46,6-4.92l-6,5-2.49,12.75c-.6,2.26-11.24,56.78-33.24,52.31-18.77-3.82-1.39-28.89-.07-30.68l5.11-5.92a242.81,242.81,0,0,1,21-20.22c-11.12,9.48-18.58,16.06-19.22,16.64l-3.67,3.88c-1.3,1.32-29.35,29.72-4.16,38.77,25.76,9.26,31.66-14.15,38.57-28.24,3.34-6.81,7.46-28.76,10.87-49.7,27.6-22.11,56.75-42.88,60.94-45.86C450.08,131.23,459.77,123.95,459.77,123.95Zm-23.68-90c8.72.24-4,32.1-4,32.1C427.28,81.28,396,125.49,396,125.49S419,33.43,436.08,33.9Z"/><path class="cls-1" d="M191.53,108.38a.53.53,0,0,0-.06.11C189.78,112.63,108.11,348.9,69.31,385c-32.64,30.36-54.47,11-55.86,4.84a.63.63,0,0,0-.22-.42l-1.55-1.06a.53.53,0,0,0-.81.57c1.44,5.14,8.43,21.46,24.6,24.63,8.86,1.74,47.16,14,106-144.3,58.69-158,58.73-151.09,58.2-155.08S197.24,100.34,191.53,108.38Z"/><path class="cls-1" d="M15.9,394.85s-45.47-59,148.93-205.87l.15-4.84s-132.93,84.14-152.63,166C12.35,350.13,3.11,389.18,15.9,394.85Z"/><path class="cls-1" d="M625.25,137.22s-55.64,107.89-22.8,114.47,56.6-53.48,56.6-53.48-27.62,57.67-53.13,50.4S639.43,128.7,639.43,128.7s.51-10.19-7.07-5.07Z"/><path class="cls-1" d="M609,186.1c-15.91,17-31.77,30.58-39.32,28.59-23.6-6.25,45.63-106.85,50.38-109.75,4-2.47,0,18.15-1.25,24.4a1.34,1.34,0,1,0,2.62.53c1.26-6.36,7.5-41.06-11-21.15-20.33,21.86-75,100.67-52,110.34,13.54,5.7,33.22-10.48,51.16-32.18Q609.3,186.5,609,186.1Z"/><path class="cls-1" d="M242.93,214.82c-18.08,19.41-35,33.34-44.13,31.31-20.75-4.59,6.54-61,31.18-106.19a15.64,15.64,0,0,1-1.52-4.11c-.49-2.37-1-4.72-1.67-7-.26-.94-.56-1.87-.86-2.8-31.47,47.12-68.75,117.44-43.05,127.08,17.06,6.4,40.34-11.77,62-37.29C244.29,215.23,243.25,215.51,242.93,214.82Z"/><path class="cls-1" d="M309.73,143.22s-81.74,95.58-96.41,102c0,0,97-101.47,97.69-107.18S309.73,143.22,309.73,143.22Z"/><path class="cls-1" d="M501.12,55.54c3.86,0,3.87-6,0-6s-3.87,6,0,6Z"/><path class="cls-1" d="M206.84,68.56c3.86,0,3.87-6,0-6s-3.87,6,0,6Z"/><text class="cls-2" transform="translate(324 358.2)">T<tspan class="cls-3" x="77.87" y="0">ORO</tspan></text>
				data-0="fill:rgb(130,200,60);"
				data-1000="fill:rgb(255,200,120);"
				data-2000="fill:rgb(230,170,235);"
</g></svg>